<svg id="flocon" xmlns="http://www.w3.org/2000/svg" viewBox="0 0 273.12 268.51"><defs><style>.cls-1{fill:none;stroke:#36a9e1;stroke-linecap:round;stroke-linejoin:round;stroke-width:10px;}</style></defs><line class="cls-1" x1="5" y1="134.26" x2="268.12" y2="134.26"/><polyline class="cls-1" points="268.12 103.61 231.66 134.25 268.12 164.9"/><polyline class="cls-1" points="5 103.61 41.46 134.25 5 164.9"/><line class="cls-1" x1="70.78" y1="248.19" x2="202.34" y2="20.32"/><polyline class="cls-1" points="175.8 5 184.11 51.9 228.88 35.64"/><polyline class="cls-1" points="44.24 232.87 89.01 216.61 97.32 263.51"/><line class="cls-1" x1="202.34" y1="248.19" x2="70.78" y2="20.32"/><polyline class="cls-1" points="44.24 35.64 89.01 51.9 97.32 5"/><polyline class="cls-1" points="175.8 263.51 184.11 216.61 228.88 232.87"/><polygon class="cls-1" points="165.69 83.81 107.43 83.81 78.3 134.25 107.43 184.71 165.69 184.71 194.81 134.25 165.69 83.81"/></svg>