<svg xmlns="http://www.w3.org/2000/svg" viewBox="0 0 653.4 477.34"><defs><style>.cls-1{fill:#009fe3;stroke:#1d71b8;stroke-linecap:round;stroke-linejoin:round;stroke-width:5px;}.cls-2{fill:#dadada;stroke:#1d1d1b;stroke-miterlimit:10;stroke-width:10px;}</style></defs><g id="pluie"><path class="cls-1" d="M286.39,769.78a15.16,15.16,0,1,1-27.19-9.21l11-29a1.13,1.13,0,0,1,2.1,0l11,29A15.13,15.13,0,0,1,286.39,769.78Z" transform="translate(-185.3 -310.09)"/><path class="cls-1" d="M380.86,769.78a15.16,15.16,0,1,1-27.19-9.21l11-29a1.13,1.13,0,0,1,2.1,0l11,29A15.13,15.13,0,0,1,380.86,769.78Z" transform="translate(-185.3 -310.09)"/><path class="cls-1" d="M478.39,769.78a15.16,15.16,0,1,1-27.19-9.21l11-29a1.13,1.13,0,0,1,2.1,0l11,29A15.13,15.13,0,0,1,478.39,769.78Z" transform="translate(-185.3 -310.09)"/><path class="cls-1" d="M575.92,769.78a15.16,15.16,0,1,1-27.19-9.21l11-29a1.13,1.13,0,0,1,2.1,0l11,29A15.13,15.13,0,0,1,575.92,769.78Z" transform="translate(-185.3 -310.09)"/><path class="cls-1" d="M670.39,769.78a15.16,15.16,0,1,1-27.19-9.21l11-29a1.13,1.13,0,0,1,2.1,0l11,29A15.13,15.13,0,0,1,670.39,769.78Z" transform="translate(-185.3 -310.09)"/><path class="cls-1" d="M767.92,769.78a15.16,15.16,0,1,1-27.19-9.21l11-29a1.13,1.13,0,0,1,2.1,0l11,29A15.13,15.13,0,0,1,767.92,769.78Z" transform="translate(-185.3 -310.09)"/></g><g id="nuage"><path class="cls-2" d="M833.7,602.44h0A106.46,106.46,0,0,1,727.24,708.91H296.77A106.46,106.46,0,0,1,190.3,602.45h0a106.42,106.42,0,0,1,51.17-91A108.38,108.38,0,0,1,427.91,422a150.93,150.93,0,0,1,292.27,74h7.06A106.46,106.46,0,0,1,833.7,602.44Z" transform="translate(-185.3 -310.09)"/></g></svg>