<svg id="Soleil_2" data-name="Soleil 2" xmlns="http://www.w3.org/2000/svg" viewBox="0 0 565.05 565.05"><defs><style>.cls-1{fill:#ffde00;stroke:#1d1d1b;stroke-miterlimit:10;stroke-width:10px;}</style></defs><circle class="cls-1" cx="285.59" cy="282.53" r="181.79"/><path class="cls-1" d="M475.56,290.64c-1.3,1.87-.57,5.68,1.08,5.68L484,295.2a205.3,205.3,0,0,1,62.21,0l7.32,1.12c1.65,0,2.38-3.81,1.08-5.68l-38.42-55.48a1.2,1.2,0,0,0-2.17,0Z" transform="translate(-229.47 -229.47)"/><path class="cls-1" d="M469.43,733.36c-1.3-1.87-.57-5.68,1.08-5.68l7.32,1.12a205.3,205.3,0,0,0,62.21,0l7.32-1.12c1.65,0,2.38,3.81,1.08,5.68L510,788.84a1.2,1.2,0,0,1-2.17,0Z" transform="translate(-229.47 -229.47)"/><path class="cls-1" d="M369.76,338.52c-.18,2.27,2.35,5.2,3.78,4.38l5.78-4.63a204.94,204.94,0,0,1,53.87-31.11l6.9-2.69c1.43-.82.16-4.48-1.9-5.46l-61-28.83a1.19,1.19,0,0,0-1.87,1.08Z" transform="translate(-229.47 -229.47)"/><path class="cls-1" d="M585.81,725c-2.06-1-3.33-4.64-1.9-5.46l6.9-2.69a204.94,204.94,0,0,0,53.87-31.11l5.78-4.63c1.43-.82,4,2.11,3.78,4.38l-5.54,67.26a1.19,1.19,0,0,1-1.87,1.08Z" transform="translate(-229.47 -229.47)"/><path class="cls-1" d="M302.08,432.88c1,2.06,4.63,3.33,5.46,1.9l2.69-6.9A205.23,205.23,0,0,1,341.33,374l4.63-5.78c.83-1.43-2.11-4-4.38-3.77L274.32,370a1.2,1.2,0,0,0-1.08,1.88Z" transform="translate(-229.47 -229.47)"/><path class="cls-1" d="M682.42,659.54c-2.27.19-5.21-2.34-4.38-3.77l4.63-5.78a205.23,205.23,0,0,0,31.1-53.87l2.69-6.9c.83-1.43,4.49-.16,5.46,1.9l28.84,61a1.2,1.2,0,0,1-1.08,1.88Z" transform="translate(-229.47 -229.47)"/><path class="cls-1" d="M290.64,548.44c1.87,1.3,5.68.57,5.68-1.08L295.2,540a205.3,205.3,0,0,1,0-62.21l1.12-7.32c0-1.65-3.81-2.38-5.68-1.08l-55.48,38.42a1.2,1.2,0,0,0,0,2.17Z" transform="translate(-229.47 -229.47)"/><path class="cls-1" d="M733.36,554.57c-1.87,1.3-5.68.57-5.68-1.08l1.12-7.32a205.3,205.3,0,0,0,0-62.21l-1.12-7.32c0-1.65,3.81-2.38,5.68-1.08L788.84,514a1.2,1.2,0,0,1,0,2.17Z" transform="translate(-229.47 -229.47)"/><path class="cls-1" d="M338.52,654.24c2.27.18,5.2-2.35,4.38-3.78l-4.63-5.78a204.94,204.94,0,0,1-31.11-53.87l-2.69-6.9c-.82-1.43-4.48-.16-5.46,1.9l-28.83,61a1.19,1.19,0,0,0,1.08,1.87Z" transform="translate(-229.47 -229.47)"/><path class="cls-1" d="M725,438.19c-1,2.06-4.64,3.33-5.46,1.9l-2.69-6.9a204.94,204.94,0,0,0-31.11-53.87l-4.63-5.78c-.82-1.43,2.11-4,4.38-3.78l67.26,5.54a1.19,1.19,0,0,1,1.08,1.87Z" transform="translate(-229.47 -229.47)"/><path class="cls-1" d="M432.88,721.92c2.06-1,3.33-4.63,1.9-5.46l-6.9-2.69A205.23,205.23,0,0,1,374,682.67L368.23,678c-1.43-.83-4,2.11-3.77,4.38L370,749.68a1.2,1.2,0,0,0,1.88,1.08Z" transform="translate(-229.47 -229.47)"/><path class="cls-1" d="M659.54,341.58c.19,2.27-2.34,5.21-3.77,4.38L650,341.33a205.23,205.23,0,0,0-53.87-31.1l-6.9-2.69c-1.43-.83-.16-4.49,1.9-5.46l61-28.84a1.2,1.2,0,0,1,1.88,1.08Z" transform="translate(-229.47 -229.47)"/><path class="cls-1" d="M290.64,548.44c1.87,1.3,5.68.57,5.68-1.08L295.2,540a205.3,205.3,0,0,1,0-62.21l1.12-7.32c0-1.65-3.81-2.38-5.68-1.08l-55.48,38.42a1.2,1.2,0,0,0,0,2.17Z" transform="translate(-229.47 -229.47)"/><path class="cls-1" d="M733.36,554.57c-1.87,1.3-5.68.57-5.68-1.08l1.12-7.32a205.3,205.3,0,0,0,0-62.21l-1.12-7.32c0-1.65,3.81-2.38,5.68-1.08L788.84,514a1.2,1.2,0,0,1,0,2.17Z" transform="translate(-229.47 -229.47)"/></svg>