<svg xmlns="http://www.w3.org/2000/svg" viewBox="0 0 620.77 757.87"><defs><style>.cls-1{fill:#b2b2b2;stroke:#9d9d9c;stroke-width:0.9px;}.cls-1,.cls-2,.cls-3,.cls-4,.cls-5,.cls-6{stroke-miterlimit:10;}.cls-2{fill:none;stroke:#008d36;}.cls-2,.cls-3{stroke-width:10.9px;}.cls-3{fill:#009640;}.cls-3,.cls-4{stroke:#1d1d1b;}.cls-4{fill:#1d1d1b;stroke-width:10.63px;}.cls-5,.cls-6{fill:#fff;stroke:#fff;}.cls-5{stroke-width:3.79px;}.cls-6{stroke-width:3.55px;}</style></defs><g id="shadow"><path class="cls-1" d="M519.67,867.12S869.33,745.47,858.1,629.81s-118-75.78-118-75.78" transform="translate(-238.04 -109.68)"/></g><g id="Pin"><path class="cls-2" d="M795.52,365.52" transform="translate(-238.04 -109.68)"/><path class="cls-2" d="M519.67,616.22" transform="translate(-238.04 -109.68)"/><path class="cls-3" d="M519.67,859C222.48,523,243.83,365.83,243.83,365.83c0-138.46,123.5-250.7,275.84-250.7s275.85,112.24,275.85,250.7C795.52,365.83,816.87,523,519.67,859Z" transform="translate(-238.04 -109.68)"/><path class="cls-4" d="M748.37,382.88c0,126.31-102.39,228.69-228.7,228.69S291,509.19,291,382.88,393.37,154.19,519.67,154.19,748.37,256.58,748.37,382.88Z" transform="translate(-238.04 -109.68)"/></g><g id="Vélo"><circle class="cls-5" cx="183.79" cy="322.62" r="59.09"/><circle class="cls-5" cx="379.47" cy="322.62" r="59.09"/><ellipse class="cls-6" cx="268.26" cy="139.54" rx="23.44" ry="21.31"/><path class="cls-5" d="M504.48,262.77v15.5l-51.11,54.25s-13.56.65-11.62,5.17-8.4,7.75,12.91,8.39,1.11-3.12,50.19-37c0,0,7.72,22.17,19.9,36.05,2.36,2.69,3.25,11.46-2.89,10.11l-22.64,7.65-18.29,16.79c-1.28-.32-2.24,11.06,13.68,23,6.47,4.87,10,.94,12.33-1.72a6.24,6.24,0,0,0-.48-8.58l-8.85-8.54,7.72-5.93L524.41,379l5.34,9-18.26,28.42,3.88,45.85s3,9.69,19.16,0c0,0-6-46.07-1.51-50.59s37.58-45,37.58-45,8.49-22.6-21.86-49.73S523,255.56,523,255.56Z" transform="translate(-238.04 -109.68)"/></g></svg>