<svg xmlns="http://www.w3.org/2000/svg" viewBox="0 0 620.77 757.86"><defs><style>.cls-1{fill:#b2b2b2;stroke:#9d9d9c;stroke-width:0.9px;}.cls-1,.cls-3,.cls-4,.cls-6{stroke-miterlimit:10;}.cls-2{fill:#fff;}.cls-3,.cls-6{fill:none;}.cls-3{stroke:#008d36;}.cls-3,.cls-4{stroke-width:10.9px;}.cls-4{fill:#f39200;}.cls-4,.cls-6{stroke:#1d1d1b;}.cls-5{fill:#3b4e1e;}.cls-6{stroke-width:10px;}</style></defs><g id="shadow"><path class="cls-1" d="M519.67,867.12S869.33,745.47,858.1,629.81s-118-75.78-118-75.78" transform="translate(-238.04 -109.68)"/></g><g id="Pin"><path class="cls-2" d="M748.37,382.88c0,126.31-102.39,228.69-228.7,228.69S291,509.19,291,382.88,393.37,154.19,519.67,154.19,748.37,256.58,748.37,382.88Z" transform="translate(-238.04 -109.68)"/><path class="cls-3" d="M795.52,365.52" transform="translate(-238.04 -109.68)"/><path class="cls-3" d="M519.67,616.22" transform="translate(-238.04 -109.68)"/><path class="cls-4" d="M795.52,365.83c0-138.46-123.5-250.7-275.85-250.7S243.83,227.37,243.83,365.83c0,0-21.35,157.17,275.84,493.12C816.87,523,795.52,365.83,795.52,365.83ZM519.67,611.57C393.37,611.57,291,509.19,291,382.88S393.37,154.19,519.67,154.19s228.7,102.39,228.7,228.69S646,611.57,519.67,611.57Z" transform="translate(-238.04 -109.68)"/></g><g id="Resto"><path class="cls-5" d="M748.37,382.88a228.68,228.68,0,0,1-124,203.38c-.91-127.85-3.07-293.88-2-349.34a4.11,4.11,0,0,0-7.76-2.08c-21.71,42.08-74,175.2-44.44,260.07a8.78,8.78,0,0,0,7.15,5.77c3.52.49,8.16,1.55,11.63,3.86a8.45,8.45,0,0,1,3.75,7.06l.5,87.89a229.85,229.85,0,0,1-152.28-1.83c-.37-63,1.91-132.7,30.66-171a7.61,7.61,0,0,0,1.49-4.55V241.38a7.48,7.48,0,0,0-1.9-5,6.22,6.22,0,0,0-4.6-2.08c-3.59,0-6.49,3.18-6.49,7.11V352.94c0,3.93-2.88,7.11-6.43,7.11s-6.43-3.18-6.43-7.11V241.38a7.48,7.48,0,0,0-1.9-5,6.21,6.21,0,0,0-4.6-2.08c-3.59,0-6.49,3.18-6.49,7.11V352.94a7.52,7.52,0,0,1-1.88,5,6.11,6.11,0,0,1-4.55,2.08c-3.55,0-6.43-3.18-6.43-7.11V241.38a7.48,7.48,0,0,0-1.9-5,6.22,6.22,0,0,0-4.6-2.08c-3.59,0-6.49,3.18-6.49,7.11V352.94a7.52,7.52,0,0,1-1.88,5,6.13,6.13,0,0,1-4.55,2.08c-3.55,0-6.43-3.18-6.43-7.11V241.38a7.48,7.48,0,0,0-1.9-5,6.21,6.21,0,0,0-4.6-2.08c-3.58,0-6.49,3.18-6.49,7.11V422.13a7.61,7.61,0,0,0,1.49,4.55c27,36,30.65,99.67,30.85,159.52A228.64,228.64,0,0,1,291,382.88c0-126.3,102.39-228.69,228.69-228.69S748.37,256.58,748.37,382.88Z" transform="translate(-238.04 -109.68)"/><path class="cls-6" d="M748.37,382.88c0,126.31-102.39,228.69-228.7,228.69S291,509.19,291,382.88,393.37,154.19,519.67,154.19,748.37,256.58,748.37,382.88Z" transform="translate(-238.04 -109.68)"/></g></svg>