<svg xmlns="http://www.w3.org/2000/svg" viewBox="0 0 620.77 757.87"><defs><style>.cls-1{fill:#b2b2b2;stroke:#9d9d9c;stroke-width:0.9px;}.cls-1,.cls-2,.cls-3,.cls-5,.cls-7{stroke-miterlimit:10;}.cls-2,.cls-7{fill:none;}.cls-2{stroke:#008d36;}.cls-2,.cls-3{stroke-width:10.9px;}.cls-3,.cls-5,.cls-6{fill:#fff;}.cls-3,.cls-7{stroke:#1d1d1b;}.cls-4{fill:#f39200;}.cls-5,.cls-6{stroke:#fff;stroke-linecap:round;}.cls-5{stroke-width:2.85px;}.cls-6{stroke-linejoin:round;stroke-width:4px;}.cls-7{stroke-width:10.63px;}</style></defs><g id="shadow"><path class="cls-1" d="M519.67,867.12S869.33,745.47,858.1,629.81s-118-75.78-118-75.78" transform="translate(-238.04 -109.68)"/></g><g id="Pin"><path class="cls-2" d="M795.52,365.52" transform="translate(-238.04 -109.68)"/><path class="cls-2" d="M519.67,616.22" transform="translate(-238.04 -109.68)"/><path class="cls-3" d="M519.67,859C222.48,523,243.83,365.83,243.83,365.83c0-138.46,123.5-250.7,275.84-250.7s275.85,112.24,275.85,250.7C795.52,365.83,816.87,523,519.67,859Z" transform="translate(-238.04 -109.68)"/></g><g id="Resto"><path class="cls-4" d="M748.37,382.88c0,126.31-102.39,228.69-228.7,228.69S291,509.19,291,382.88,393.37,154.19,519.67,154.19,748.37,256.58,748.37,382.88Z" transform="translate(-238.04 -109.68)"/><path class="cls-5" d="M453.67,360.05c3.55,0,6.43-3.18,6.43-7.11V241.38c0-3.93,2.9-7.11,6.49-7.11h0c3.59,0,6.5,3.18,6.5,7.11V422.13a7.61,7.61,0,0,1-1.49,4.55c-41,54.58-28.17,173-30.56,245H415.19C412.2,599.7,425,481.26,384,426.68a7.61,7.61,0,0,1-1.49-4.55V241.38c0-3.93,2.91-7.11,6.49-7.11h0c3.59,0,6.5,3.18,6.5,7.11V352.94c0,3.93,2.88,7.11,6.43,7.11h0c3.55,0,6.43-3.18,6.43-7.11V241.38c0-3.93,2.9-7.11,6.49-7.11h0c3.59,0,6.5,3.18,6.5,7.11V352.94c0,3.93,2.88,7.11,6.43,7.11h0c3.55,0,6.43-3.18,6.43-7.11V241.38c0-3.93,2.9-7.11,6.49-7.11h0c3.59,0,6.5,3.18,6.5,7.11V352.94c0,3.93,2.87,7.11,6.43,7.11Z" transform="translate(-238.04 -109.68)"/><path class="cls-6" d="M624.74,668.94c-.08-125.37-3.71-363.38-2.35-432a4.11,4.11,0,0,0-7.76-2.08c-21.71,42.08-74,175.2-44.44,260.07a8.78,8.78,0,0,0,7.15,5.77c3.52.49,8.16,1.55,11.63,3.86a8.45,8.45,0,0,1,3.75,7.06l.9,157.52a4.18,4.18,0,0,0,4.14,4.21l22.88-.13A4.19,4.19,0,0,0,624.74,668.94Z" transform="translate(-238.04 -109.68)"/></g><g id="Calque_4" data-name="Calque 4"><path class="cls-7" d="M748.37,382.88c0,126.31-102.39,228.69-228.7,228.69S291,509.19,291,382.88,393.37,154.19,519.67,154.19,748.37,256.58,748.37,382.88Z" transform="translate(-238.04 -109.68)"/></g></svg>