<svg xmlns="http://www.w3.org/2000/svg" xmlns:xlink="http://www.w3.org/1999/xlink" viewBox="0 0 1080 1086.71"><defs><style>.cls-1{fill:#b2b2b2;stroke:#9d9d9c;stroke-width:0.9px;}.cls-1,.cls-2,.cls-3,.cls-4,.cls-6{stroke-miterlimit:10;}.cls-2,.cls-5,.cls-6{fill:none;}.cls-2{stroke:#008d36;}.cls-2,.cls-3{stroke-width:10.9px;}.cls-3{fill:#e30613;}.cls-3,.cls-4,.cls-6{stroke:#1d1d1b;}.cls-4{fill:#f9b233;stroke-width:10.63px;}.cls-5{stroke:#e30613;stroke-linejoin:round;stroke-width:20px;}.cls-5,.cls-6{stroke-linecap:round;}.cls-6{stroke-width:6px;}</style></defs><g id="shadow"><path class="cls-1" d="M519.67,867.12S869.33,745.47,858.1,629.81s-118-75.78-118-75.78" transform="translate(-10.28 219.17)"/></g><g id="Pin"><path class="cls-2" d="M795.52,365.52" transform="translate(-10.28 219.17)"/><path class="cls-2" d="M519.67,616.22" transform="translate(-10.28 219.17)"/><path class="cls-3" d="M519.67,859C222.48,523,243.83,365.83,243.83,365.83c0-138.46,123.5-250.7,275.84-250.7s275.85,112.24,275.85,250.7C795.52,365.83,816.87,523,519.67,859Z" transform="translate(-10.28 219.17)"/></g><g id="Calque_4" data-name="Calque 4"><path class="cls-4" d="M748.37,382.88c0,126.31-102.39,228.69-228.7,228.69S291,509.19,291,382.88,393.37,154.19,519.67,154.19,748.37,256.58,748.37,382.88Z" transform="translate(-10.28 219.17)"/></g><g id="Calque_12" data-name="Calque 12"><image width="1080" height="1080" transform="translate(0 0)" xlink:href="../bonhomme.png"/></g><g id="Panneau"><path class="cls-5" d="M514.28,181,340.84,481.45a6.22,6.22,0,0,0,5.39,9.33H693.12a6.22,6.22,0,0,0,5.39-9.33L525.07,181A6.23,6.23,0,0,0,514.28,181Z" transform="translate(-10.28 219.17)"/><path class="cls-6" d="M511.4,170.86,330.59,484a9.55,9.55,0,0,0,8.27,14.33H700.49A9.55,9.55,0,0,0,708.76,484L528,170.86A9.56,9.56,0,0,0,511.4,170.86Z" transform="translate(-10.28 219.17)"/><polygon class="cls-6" points="509.4 415.48 346.49 697.65 672.31 697.65 509.4 415.48"/></g></svg>