<svg xmlns="http://www.w3.org/2000/svg" viewBox="0 0 620.77 757.86"><defs><style>.cls-1{fill:#b2b2b2;stroke:#9d9d9c;stroke-width:0.9px;}.cls-1,.cls-2,.cls-4,.cls-5,.cls-6{stroke-miterlimit:10;}.cls-2{fill:#f9b233;}.cls-2,.cls-4,.cls-6{stroke:#1d1d1b;}.cls-2,.cls-4,.cls-5,.cls-6{stroke-width:10.9px;}.cls-3,.cls-4{fill:#1d1d1b;}.cls-5{fill:none;stroke:#008d36;}.cls-6{fill:#e30613;}</style></defs><g id="shadow"><path class="cls-1" d="M519.67,867.12S869.33,745.47,858.1,629.81s-118-75.78-118-75.78" transform="translate(-238.04 -109.68)"/></g><g id="Calque_12" data-name="Calque 12"><path class="cls-2" d="M748.37,382.88c0,126.31-102.39,228.69-228.7,228.69S291,509.19,291,382.88,393.37,154.19,519.67,154.19,748.37,256.58,748.37,382.88Z" transform="translate(-238.04 -109.68)"/><path class="cls-3" d="M415.23,554.79c-7.94-6.94-15.69-14.13-23.91-20.73-3.66-2.94-3.46-4.64-.83-8.24,12.83-17.6,25.1-35.61,38-53.15a38.91,38.91,0,0,0,7.57-18.73q3-25.11,5.46-50.31c.92-9.4-11.14-17.91-19.9-14.29-11.8,4.89-17.86.86-16.33-11.59,2-15.83,4-31.7,7.32-47.28,2.26-10.68,8.48-18.67,20-22.51,21-7,41.38-16,62.55-22.71a26,26,0,0,1,7.58-1.09c8.13-.18,12.7-7.85,9-15.06-9.09-17.76-7.34-31.35,4.76-43.78a33.86,33.86,0,0,1,43-3.81,34.39,34.39,0,0,1,12.25,40.11c-4.45,12-12.91,19.24-25.29,22.15-7,1.66-11.67,12.67-7.58,18.45a59.12,59.12,0,0,1,11.37,35.29,48.79,48.79,0,0,1,.06,6c-4.55,33.87,4.92,64.44,21.68,93.37,1.82,3.14,3.41,6.85,3.61,10.38.21,3.81,2.5,4.89,5,6.08,17,8.18,34.07,16.15,51,24.46,3.14,1.55,5.1,1,7.65-.91,6.15-4.69,12.64-8.92,18.74-13.68,3.88-3,6.23-3.33,9.71,1.09,2.84,3.61,2.57,11.44,9.65,10.11a19.42,19.42,0,0,0,14.71-13.27c2.79-8.54,8.1-15.07,13.18-22,4.41-6,10.65-5.69,16.34-4.36,4.7,1.09,8,0,11.76-2.16,15.27-8.73,26-5.47,35,9.79,23.83,40.72-72.52,64.28-48.59,104.94,1.28,2.17-12.53,15.21-10.72,18.39-3.88.19-5.42,6.72-8.43,6.72-189.21,0-179.2,0-368.42,0,73,0,4.5-7.45,7.66-15,1.6-3.8-21.73,0-19.15,0,38.3-.08,21.58-.59,59.88-.58h34.14C414.86,556.23,415.05,555.51,415.23,554.79Zm213.88-70.47c-23.45-8.49-42.85-23.42-66.89-27.56-2.16-.38-4.17-1.1-5.19-2.65-4.76-7.27-13-9-19.94-12.72-1.48-.79-3.51-3-5.36-1.13s-.2,3.69.89,5.39c6.92,10.86,8,22.84,7.5,35.4-.54,13.51,0,27.07-.23,40.6-.09,5.19.91,9,5.41,12.57,6.87,5.42,6.63,11.73.55,18.42-.91,1-2.5,1.61-1.33,4.26,8.16,0,16.9-1.2,25.15.29,11.74,2.13,18.11-6.2,25.48-11.7,3-2.26,7.52-4.47,9.2-9.35,2.64-7.69,8.32-12.11,17-11.76,2,.08,5.15.92,5-2.83-.21-5.75,3.71-9.63,6.72-14.19-7.51-2-14.33-4.06-19.6-10.23Zm-202.38,71c2.73,2.51,5.42,1.56,7.85,1.57,21.27.08,42.55-.18,63.82.2,5.64.1,7.31-1.23,7.22-7-.32-21.27-.62-42.56.11-63.81a51.54,51.54,0,0,0-7.16-28.46c-2.56-4.44-4.58-9.23-7.31-13.56-5.82-9.26-9.25-19.95-17.12-29.7-1.92,16.7-3.49,32-5.49,47.2-1.07,8.14-3.3,15.78-8.36,22.83-9.83,13.71-18.71,28.09-28,42.21-1.39,2.12-3.29,4.38-2,7.06C434.18,541.88,433.57,549.14,426.73,555.31Zm-.12-181.61c.26,4.9,12.51,14.09,16.82,12.24a5,5,0,0,0,1.95-2.54c8.62-19.3,17.26-38.6,25.7-58,2.38-5.46-1.7-6.5-5.23-5.14-9.85,3.79-19.42,8.32-29.08,12.58-2.1.93-2.47,2.83-2.87,4.91C431.55,349.76,429.06,361.72,426.61,373.7Zm100.14-23.4-2.32-.2q-10.12,21.34-20.27,42.68a4.24,4.24,0,0,0,0,4c7.89,17,16,33.65,40.79,36.14C524.2,408.05,524.83,379.3,526.75,350.3Z" transform="translate(-238.04 -109.68)"/><rect class="cls-4" x="156.15" y="456.09" width="248.94" height="50.46"/></g><g id="Pin"><path class="cls-5" d="M795.52,365.52" transform="translate(-238.04 -109.68)"/><path class="cls-5" d="M519.67,616.22" transform="translate(-238.04 -109.68)"/><path class="cls-6" d="M795.52,365.83c0-138.46-123.5-250.7-275.85-250.7S243.83,227.37,243.83,365.83c0,0-21.35,157.17,275.84,493.12C816.87,523,795.52,365.83,795.52,365.83ZM519.67,611.57C393.37,611.57,291,509.19,291,382.88S393.37,154.19,519.67,154.19s228.7,102.39,228.7,228.69S646,611.57,519.67,611.57Z" transform="translate(-238.04 -109.68)"/></g></svg>