<svg xmlns="http://www.w3.org/2000/svg" viewBox="0 0 620.77 757.86"><defs><style>.cls-1{fill:#b2b2b2;stroke:#9d9d9c;stroke-width:0.9px;}.cls-1,.cls-2,.cls-3,.cls-5,.cls-6,.cls-7,.cls-8{stroke-miterlimit:10;}.cls-2,.cls-6{fill:none;}.cls-2{stroke:#008d36;}.cls-2,.cls-3{stroke-width:10.9px;}.cls-3,.cls-4,.cls-5,.cls-7,.cls-8{fill:#1d1d1b;}.cls-3,.cls-6,.cls-7,.cls-8{stroke:#1d1d1b;}.cls-5{stroke:#fff;}.cls-5,.cls-6,.cls-7{stroke-width:7px;}.cls-8{stroke-width:4px;}</style></defs><g id="shadow"><path class="cls-1" d="M519.67,867.12S869.33,745.47,858.1,629.81s-118-75.78-118-75.78" transform="translate(-238.04 -109.68)"/></g><g id="Pin"><path class="cls-2" d="M795.52,365.52" transform="translate(-238.04 -109.68)"/><path class="cls-2" d="M519.67,616.22" transform="translate(-238.04 -109.68)"/><path class="cls-3" d="M795.52,365.83c0-138.46-123.5-250.7-275.85-250.7S243.83,227.37,243.83,365.83c0,0-21.35,157.17,275.84,493.12C816.87,523,795.52,365.83,795.52,365.83ZM519.67,611.57C393.37,611.57,291,509.19,291,382.88S393.37,154.19,519.67,154.19s228.7,102.39,228.7,228.69S646,611.57,519.67,611.57Z" transform="translate(-238.04 -109.68)"/><path class="cls-4" d="M633.34,464.47,528.18,510.25a21.32,21.32,0,0,1-17,0L406,464.47" transform="translate(-238.04 -109.68)"/><rect class="cls-4" x="167.96" y="243.87" width="227.34" height="110.93"/><path class="cls-5" d="M699.1,370.56,524.83,427.78a16.52,16.52,0,0,1-10.31,0L340.25,370.56c-15.06-4.94-15.2-26.2-.21-31.35L514.3,279.38a16.5,16.5,0,0,1,10.75,0l174.26,59.83C714.31,344.36,714.16,365.62,699.1,370.56Z" transform="translate(-238.04 -109.68)"/><line class="cls-6" x1="127.85" y1="318.93" x2="128.36" y2="243.87"/><circle class="cls-7" cx="127.85" cy="318.93" r="4.19"/><path class="cls-8" d="M365.09,435.22l-8.69,15a1.23,1.23,0,0,0,1.06,1.84h17.37a1.23,1.23,0,0,0,1.06-1.84l-8.69-15A1.22,1.22,0,0,0,365.09,435.22Z" transform="translate(-238.04 -109.68)"/></g></svg>